<svg width="128" height="128" viewBox="0 0 128 128" fill="none" xmlns="http://www.w3.org/2000/svg">
<g filter="url(#filter0_d_1_2)">
<path d="M11.067 82V47.7H25.914C28.9847 47.7 31.6307 48.2063 33.852 49.219C36.0733 50.199 37.7883 51.62 38.997 53.482C40.2057 55.344 40.81 57.5653 40.81 60.146C40.81 62.694 40.2057 64.899 38.997 66.761C37.7883 68.623 36.0733 70.0603 33.852 71.073C31.6307 72.053 28.9847 72.543 25.914 72.543H15.477L19.005 68.966V82H11.067ZM19.005 69.848L15.477 66.075H25.473C27.923 66.075 29.7523 65.5523 30.961 64.507C32.1697 63.4617 32.774 62.008 32.774 60.146C32.774 58.2513 32.1697 56.7813 30.961 55.736C29.7523 54.6907 27.923 54.168 25.473 54.168H15.477L19.005 50.395V69.848ZM46.4772 82V47.7H62.0592C65.7832 47.7 69.0662 48.4187 71.9082 49.856C74.7502 51.2607 76.9715 53.237 78.5722 55.785C80.1728 58.333 80.9732 61.3547 80.9732 64.85C80.9732 68.3127 80.1728 71.3343 78.5722 73.915C76.9715 76.463 74.7502 78.4557 71.9082 79.893C69.0662 81.2977 65.7832 82 62.0592 82H46.4772ZM54.4152 75.483H61.6672C63.9538 75.483 65.9302 75.0583 67.5962 74.209C69.2948 73.327 70.6015 72.0857 71.5162 70.485C72.4635 68.8843 72.9372 67.006 72.9372 64.85C72.9372 62.6613 72.4635 60.783 71.5162 59.215C70.6015 57.6143 69.2948 56.3893 67.5962 55.54C65.9302 54.658 63.9538 54.217 61.6672 54.217H54.4152V75.483ZM86.9596 82V47.7H103.718C108.03 47.7 111.264 48.5167 113.42 50.15C115.608 51.7833 116.703 53.9393 116.703 56.618C116.703 58.4147 116.262 59.9827 115.38 61.322C114.498 62.6287 113.289 63.6413 111.754 64.36C110.218 65.0787 108.454 65.438 106.462 65.438L107.393 63.429C109.549 63.429 111.46 63.7883 113.126 64.507C114.792 65.193 116.082 66.222 116.997 67.594C117.944 68.966 118.418 70.6483 118.418 72.641C118.418 75.581 117.258 77.884 114.939 79.55C112.619 81.1833 109.206 82 104.698 82H86.9596ZM94.8486 76.022H104.11C106.168 76.022 107.719 75.6953 108.765 75.042C109.843 74.356 110.382 73.278 110.382 71.808C110.382 70.3707 109.843 69.309 108.765 68.623C107.719 67.9043 106.168 67.545 104.11 67.545H94.2606V61.763H102.738C104.665 61.763 106.135 61.4363 107.148 60.783C108.193 60.097 108.716 59.068 108.716 57.696C108.716 56.3567 108.193 55.3603 107.148 54.707C106.135 54.021 104.665 53.678 102.738 53.678H94.8486V76.022Z" fill="white"/>
</g>
<defs>
<filter id="filter0_d_1_2" x="7.067" y="47.7" width="115.351" height="42.3" filterUnits="userSpaceOnUse" color-interpolation-filters="sRGB">
<feFlood flood-opacity="0" result="BackgroundImageFix"/>
<feColorMatrix in="SourceAlpha" type="matrix" values="0 0 0 0 0 0 0 0 0 0 0 0 0 0 0 0 0 0 127 0" result="hardAlpha"/>
<feOffset dy="4"/>
<feGaussianBlur stdDeviation="2"/>
<feComposite in2="hardAlpha" operator="out"/>
<feColorMatrix type="matrix" values="0 0 0 0 0 0 0 0 0 0 0 0 0 0 0 0 0 0 0.25 0"/>
<feBlend mode="normal" in2="BackgroundImageFix" result="effect1_dropShadow_1_2"/>
<feBlend mode="normal" in="SourceGraphic" in2="effect1_dropShadow_1_2" result="shape"/>
</filter>
</defs>
</svg>
